<?xml version="1.0" encoding="UTF-8"?>
<svg width="48px" height="48px" viewBox="0 0 48 48" version="1.1" xmlns="http://www.w3.org/2000/svg" xmlns:xlink="http://www.w3.org/1999/xlink">
    <title>apps-line</title>
    <g id="11.1版本" stroke="none" stroke-width="1" fill="none" fill-rule="evenodd">
        <g id="用户概览与特征-1" transform="translate(-575.000000, -4636.000000)">
            <g id="编组" transform="translate(0.000000, 4621.000000)">
                <g id="apps-line" transform="translate(575.000000, 15.000000)">
                    <polygon id="路径" points="0 0 48 0 48 48 0 48"></polygon>
                    <path d="M13.5,5 C18.1944204,5 22,8.80557963 22,13.5 L22,22 L13.5,22 C8.80557963,22 5,18.1944204 5,13.5 C5,8.80557963 8.80557963,5 13.5,5 L13.5,5 Z M18,18 L18,13.5 C18,11.0147186 15.9852814,9 13.5,9 C11.0147186,9 9,11.0147186 9,13.5 C9,15.9852814 11.0147186,18 13.5,18 L18,18 Z M13.5,26 L22,26 L22,34.5 C22,39.1944204 18.1944204,43 13.5,43 C8.80557963,43 5,39.1944204 5,34.5 C5,29.8055796 8.80557963,26 13.5,26 Z M13.5,30 C11.0147186,30 9,32.0147186 9,34.5 C9,36.9852814 11.0147186,39 13.5,39 C15.9852814,39 18,36.9852814 18,34.5 L18,30 L13.5,30 Z M34.5,5 C39.1944204,5 43,8.80557963 43,13.5 C43,18.1944204 39.1944204,22 34.5,22 L26,22 L26,13.5 C26,8.80557963 29.8055796,5 34.5,5 Z M34.5,18 C36.9852814,18 39,15.9852814 39,13.5 C39,11.0147186 36.9852814,9 34.5,9 C32.0147186,9 30,11.0147186 30,13.5 L30,18 L34.5,18 Z M26,26 L34.5,26 C39.1944204,26 43,29.8055796 43,34.5 C43,39.1944204 39.1944204,43 34.5,43 C29.8055796,43 26,39.1944204 26,34.5 L26,26 Z M30,30 L30,34.5 C30,36.9852814 32.0147186,39 34.5,39 C36.9852814,39 39,36.9852814 39,34.5 C39,32.0147186 36.9852814,30 34.5,30 L30,30 L30,30 Z" id="形状" fill="#000000" fill-rule="nonzero"></path>
                </g>
            </g>
        </g>
    </g>
</svg>