<?xml version="1.0" encoding="UTF-8"?>
<svg width="24px" height="24px" viewBox="0 0 24 24" version="1.1" xmlns="http://www.w3.org/2000/svg" xmlns:xlink="http://www.w3.org/1999/xlink">
    <title>箭头</title>
    <g id="11.1版本" stroke="none" stroke-width="1" fill="none" fill-rule="evenodd">
        <g id="用户概览与特征-2" transform="translate(-123.000000, -372.000000)" fill-rule="nonzero">
            <g id="编组-15" transform="translate(0.000000, 176.000000)">
                <g id="箭头" transform="translate(135.000000, 208.000000) rotate(-180.000000) translate(-135.000000, -208.000000) translate(123.000000, 196.000000)">
                    <rect id="矩形" fill="#000000" opacity="0" x="0" y="0" width="24" height="24"></rect>
                    <path d="M12.6216094,3.63644531 C12.1502812,3.16511719 11.3862422,3.16511719 10.9149141,3.63644531 L4.87994531,9.67141406 C4.40861719,10.1427422 4.40861719,10.9067812 4.87994531,11.3781094 C5.35127344,11.8494375 6.1153125,11.8494375 6.58664062,11.3781094 L10.5612891,7.40346094 L10.5612891,18.9737109 C10.5612891,19.6405781 11.1014297,20.1807187 11.7682969,20.1807187 C12.4351641,20.1807187 12.9753047,19.6405781 12.9753047,18.9737109 L12.9753047,7.40346094 L16.9499531,11.3781094 C17.1853125,11.6134922 17.4943125,11.7317578 17.8033125,11.7317578 C18.1123125,11.7317578 18.4212891,11.6140781 18.6566719,11.3781094 C19.128,10.9067812 19.128,10.1427422 18.6566719,9.67141406 L12.6216094,3.63644531 Z" id="路径" fill="#52C41A"></path>
                </g>
            </g>
        </g>
    </g>
</svg>