<?xml version="1.0" encoding="UTF-8"?>
<svg width="48px" height="48px" viewBox="0 0 48 48" version="1.1" xmlns="http://www.w3.org/2000/svg" xmlns:xlink="http://www.w3.org/1999/xlink">
    <title>service-line</title>
    <g id="11.1版本" stroke="none" stroke-width="1" fill="none" fill-rule="evenodd">
        <g id="经营分析" transform="translate(-127.000000, -2059.000000)">
            <g id="编组-2" transform="translate(0.000000, 2044.000000)">
                <g id="service-line" transform="translate(127.000000, 15.000000)">
                    <polygon id="路径" points="0 0 48 0 48 48 0 48"></polygon>
                    <path d="M6.322,8.938 C11.1347445,4.12439008 18.8457708,3.8382796 24.002,8.282 C29.153179,3.84608559 36.8521826,4.12784038 41.6653408,8.92841233 C46.4784989,13.7289843 46.7804115,21.4272238 42.358,26.59 L26.828,42.17 C25.3479889,43.65052 22.9767751,43.7394732 21.39,42.374 L21.17,42.172 L5.642,26.59 C1.22216356,21.4319707 1.51845009,13.740721 6.322,8.938 L6.322,8.938 Z M9.15,11.766 C5.7527203,15.1642278 5.62417343,20.6318718 8.858,24.186 L9.15,24.494 L24,39.344 L34.606,28.736 L27.536,21.666 L25.416,23.786 C23.0732081,26.1298965 19.2738965,26.1307919 16.93,23.788 C14.5861035,21.4452081 14.5852081,17.6458965 16.928,15.302 L21.132,11.096 C17.6759541,8.33777088 12.7283727,8.49797182 9.458,11.474 L9.15,11.766 Z M26.122,17.422 C26.9029997,16.6412361 28.1690003,16.6412361 28.95,17.422 L37.434,25.906 L38.85,24.494 C42.3085679,21.0378954 42.3751919,15.4527306 39.0000504,11.9151085 C35.6249089,8.37748629 30.0427816,8.18162933 26.428,11.474 L26.122,11.766 L19.758,18.13 C19.0404446,18.8470786 18.9733942,19.9877951 19.602,20.784 L19.758,20.958 C20.4750786,21.6755554 21.6157951,21.7426058 22.412,21.114 L22.586,20.958 L26.122,17.422 L26.122,17.422 Z" id="形状" fill="#333333" fill-rule="nonzero"></path>
                </g>
            </g>
        </g>
    </g>
</svg>