<?xml version="1.0" encoding="UTF-8"?>
<svg width="48px" height="48px" viewBox="0 0 48 48" version="1.1" xmlns="http://www.w3.org/2000/svg" xmlns:xlink="http://www.w3.org/1999/xlink">
    <title>service-fill</title>
    <defs>
        <radialGradient cx="23.4571551%" cy="9.53579964%" fx="23.4571551%" fy="9.53579964%" r="90.8482242%" gradientTransform="translate(0.234572,0.095358),scale(0.889275,1.000000),rotate(50.187792),translate(-0.234572,-0.095358)" id="radialGradient-1">
            <stop stop-color="#FFCE95" offset="0%"></stop>
            <stop stop-color="#F39424" offset="100%"></stop>
        </radialGradient>
    </defs>
    <g id="11.1版本" stroke="none" stroke-width="1" fill="none" fill-rule="evenodd">
        <g id="用户概览与特征-1" transform="translate(-127.000000, -4636.000000)">
            <g id="编组" transform="translate(0.000000, 4621.000000)">
                <g id="service-fill" transform="translate(127.000000, 15.000000)">
                    <polygon id="路径" points="0 0 48 0 48 48 0 48"></polygon>
                    <path d="M28.242,20.96 C27.4610003,20.1792361 26.1949997,20.1792361 25.414,20.96 L24,22.372 C22.9957021,23.4118263 21.5084884,23.8288504 20.1099707,23.4627886 C18.711453,23.0967269 17.6192731,22.004547 17.2532114,20.6060293 C16.8871496,19.2075116 17.3041737,17.7202979 18.344,16.716 L29.604,5.452 C35.0717258,4.20836603 40.7207089,6.61076972 43.6177626,11.4117832 C46.5148162,16.2127967 46.0070028,22.3303681 42.358,26.588 L38.142,30.858 L28.242,20.958 L28.242,20.96 Z M6.322,8.936 C10.5823775,4.67618692 17.2106152,3.89989938 22.34,7.06 L15.514,13.888 C12.4392996,16.9565716 12.3751827,21.9180614 15.3695598,25.0650632 C18.3639368,28.2120649 23.3224867,28.3944795 26.54,25.476 L26.828,25.202 L35.314,33.686 L26.828,42.172 C25.2660006,43.7335278 22.7339994,43.7335278 21.172,42.172 L6.32,27.32 C1.24370173,22.243273 1.24370173,14.012727 6.32,8.936 L6.322,8.936 Z" id="形状" fill="url(#radialGradient-1)" fill-rule="nonzero"></path>
                </g>
            </g>
        </g>
    </g>
</svg>