<?xml version="1.0" encoding="UTF-8"?>
<svg width="44px" height="44px" viewBox="0 0 44 44" version="1.1" xmlns="http://www.w3.org/2000/svg" xmlns:xlink="http://www.w3.org/1999/xlink">
    <title>fullscreen-exit-line</title>
    <g id="11.1版本" stroke="none" stroke-width="1" fill="none" fill-rule="evenodd">
        <g id="业态复购率横屏" transform="translate(-816.000000, -55.000000)">
            <g id="编组-24" transform="translate(798.000000, 37.000000)">
                <g id="fullscreen-exit-line" transform="translate(18.666667, 18.666667)">
                    <polygon id="路径" points="0 0 42.6666667 0 42.6666667 42.6666667 0 42.6666667"></polygon>
                    <path d="M32,12.4444444 L39.1111111,12.4444444 L39.1111111,16 L28.4444444,16 L28.4444444,5.33333333 L32,5.33333333 L32,12.4444444 Z M14.2222222,16 L3.55555556,16 L3.55555556,12.4444444 L10.6666667,12.4444444 L10.6666667,5.33333333 L14.2222222,5.33333333 L14.2222222,16 Z M32,30.2222222 L32,37.3333333 L28.4444444,37.3333333 L28.4444444,26.6666667 L39.1111111,26.6666667 L39.1111111,30.2222222 L32,30.2222222 Z M14.2222222,26.6666667 L14.2222222,37.3333333 L10.6666667,37.3333333 L10.6666667,30.2222222 L3.55555556,30.2222222 L3.55555556,26.6666667 L14.2222222,26.6666667 Z" id="形状" fill="#F39424" fill-rule="nonzero"></path>
                </g>
            </g>
        </g>
    </g>
</svg>