<?xml version="1.0" encoding="UTF-8"?>
<svg width="48px" height="48px" viewBox="0 0 48 48" version="1.1" xmlns="http://www.w3.org/2000/svg" xmlns:xlink="http://www.w3.org/1999/xlink">
    <title>fullscreen-line</title>
    <g id="11.1版本" stroke="none" stroke-width="1" fill="none" fill-rule="evenodd">
        <g id="用户概览与特征-2" transform="translate(-630.000000, -3701.000000)">
            <g id="编组-10" transform="translate(614.000000, 3685.000000)">
                <g id="fullscreen-line" transform="translate(16.666667, 16.666667)">
                    <polygon id="路径" points="0 0 46.6666667 0 46.6666667 46.6666667 0 46.6666667"></polygon>
                    <path d="M38.8888889,5.83333333 L42.7777778,5.83333333 L42.7777778,17.5 L38.8888889,17.5 L38.8888889,9.72222222 L31.1111111,9.72222222 L31.1111111,5.83333333 L38.8888889,5.83333333 Z M7.77777778,5.83333333 L15.5555556,5.83333333 L15.5555556,9.72222222 L7.77777778,9.72222222 L7.77777778,17.5 L3.88888889,17.5 L3.88888889,5.83333333 L7.77777778,5.83333333 Z M38.8888889,36.9444444 L38.8888889,29.1666667 L42.7777778,29.1666667 L42.7777778,40.8333333 L31.1111111,40.8333333 L31.1111111,36.9444444 L38.8888889,36.9444444 Z M7.77777778,36.9444444 L15.5555556,36.9444444 L15.5555556,40.8333333 L3.88888889,40.8333333 L3.88888889,29.1666667 L7.77777778,29.1666667 L7.77777778,36.9444444 Z" id="形状" fill="#F39424" fill-rule="nonzero"></path>
                </g>
            </g>
        </g>
    </g>
</svg>